<svg id="Слой_1" data-name="Слой 1" xmlns="http://www.w3.org/2000/svg" viewBox="0 0 28 37.33"><title>Icon-Locked</title><path d="M24.5,37.32H3.5A3.5,3.5,0,0,1,0,33.82V21a3.5,3.5,0,0,1,3.5-3.5H4.67V8.16C4.67,3.65,8.84,0,14,0s9.33,3.66,9.33,8.17v9.33H24.5A3.5,3.5,0,0,1,28,21V33.82A3.5,3.5,0,0,1,24.5,37.32ZM18.67,8.16c0-1.93-2.09-3.5-4.67-3.5S9.33,6.23,9.33,8.16v8.16a2.72,2.72,0,0,0,.29,1.17h8.76a2.72,2.72,0,0,0,.29-1.17V8.16ZM14,21a4.65,4.65,0,0,0-2.33,8.69v1.81a2.33,2.33,0,1,0,4.67,0V29.68A4.65,4.65,0,0,0,14,21Z" transform="translate(0 0.01)"/></svg>