<svg id="Слой_1" data-name="Слой 1" xmlns="http://www.w3.org/2000/svg" viewBox="0 0 40.36 33.63"><title>Icon-Laptop</title><path d="M36.32,33.63H4c-1.49,0-4-1.2-4-2.69a2.69,2.69,0,0,1,2.69-2.69h35a2.69,2.69,0,0,1,2.69,2.69C40.36,32.42,37.81,33.63,36.32,33.63ZM24.22,30.94H16.14a1.2,1.2,0,0,0-1.34.67,1.2,1.2,0,0,0,1.34.67h8.07a1.21,1.21,0,0,0,1.35-.67A1.2,1.2,0,0,0,24.22,30.94ZM14.94,13.87l2.48,2.49,8-8a1.34,1.34,0,0,1,1.89,0l1.9,1.9a1.35,1.35,0,0,1,0,1.9L18.79,22.6a1.32,1.32,0,0,1-1.64.17,1.32,1.32,0,0,1-1.27-.33l-4.73-4.76a1.35,1.35,0,0,1,0-1.9L13,13.87A1.34,1.34,0,0,1,14.94,13.87ZM33.63,4H6.73V25.56h-4V22.86H2.94a4,4,0,0,1-.25-1.35V4a4,4,0,0,1,4-4H33.63a4,4,0,0,1,4,4V21.52a4,4,0,0,1-.25,1.35h0.25v2.69h-4V4Z" transform="translate(0 0.01)"/></svg>