<svg id="Слой_1" data-name="Слой 1" xmlns="http://www.w3.org/2000/svg" viewBox="0 0 38.55 38.09"><title>Icon-Basket</title><path d="M35.09,16.07H3.43a3.44,3.44,0,0,1,0-6.88H7.32a2.76,2.76,0,0,1,.26-0.64l4.13-7.15a2.75,2.75,0,1,1,4.77,2.75l-2.91,5H25L22,4.14a2.75,2.75,0,1,1,4.77-2.75l4.13,7.15a2.72,2.72,0,0,1,.26.64h3.89A3.44,3.44,0,1,1,35.09,16.07Zm-0.58,22H4L2.82,17.45H35.7ZM12.38,24.33a1.38,1.38,0,0,0-2.75,0v8.26a1.38,1.38,0,0,0,2.75,0V24.33Zm8.26,0a1.38,1.38,0,0,0-2.75,0v8.26a1.38,1.38,0,0,0,2.75,0V24.33Zm8.26,0a1.38,1.38,0,0,0-2.75,0v8.26a1.38,1.38,0,0,0,2.75,0V24.33Z" transform="translate(0.01 -0.01)"/></svg>