<svg id="Слой_1" data-name="Слой 1" xmlns="http://www.w3.org/2000/svg" viewBox="0 0 57.86 49.18"><defs><style>.cls-1{fill:none;stroke:#36a7fe;stroke-miterlimit:10;stroke-width:2px;}.cls-2{fill:#36a7fe;}</style></defs><title>analyzing</title><path class="cls-1" d="M582.61,425.66a23.38,23.38,0,1,1,22.93,27.93,20.71,20.71,0,0,1-12.26-3.46" transform="translate(-572.06 -405.83)"/><path class="cls-1" d="M597.77,425.56a9.14,9.14,0,1,1-.43,8" transform="translate(-572.06 -405.83)"/><line class="cls-1" x1="1.03" y1="20.87" x2="1.01" y2="48.17"/><line class="cls-1" x1="1.03" y1="20.87" x2="32.94" y2="21"/><line class="cls-1" x1="14.94" y1="27.5" x2="33.19" y2="27.42"/><line class="cls-1" x1="14.86" y1="34.52" x2="18.36" y2="34.52"/><line class="cls-1" x1="15.36" y1="41.83" x2="19.11" y2="41.77"/><line class="cls-1" x1="1.01" y1="48.17" x2="19.11" y2="48.17"/><path class="cls-1" d="M604.62,426.82a3.22,3.22,0,0,1,0,6.45" transform="translate(-572.06 -405.83)"/><path class="cls-1" d="M589.83,433.27a3.56,3.56,0,0,1,0,7.08" transform="translate(-572.06 -405.83)"/><path class="cls-1" d="M589.83,440.35a3.67,3.67,0,0,1,0,7.28" transform="translate(-572.06 -405.83)"/><path class="cls-1" d="M590.4,447.53a3.15,3.15,0,0,1,3.08,3.21c0,1.78-1.37,3.44-3.05,3.24" transform="translate(-572.06 -405.83)"/><circle class="cls-2" cx="25.68" cy="19.97" r="1.11"/><circle class="cls-2" cx="10.55" cy="20.06" r="1.02"/><circle class="cls-2" cx="1.11" cy="21" r="1.11"/><circle class="cls-2" cx="1.11" cy="48.07" r="1.11"/><line class="cls-1" x1="21.46" y1="12.1" x2="25.02" y2="15.46"/><line class="cls-1" x1="42.36" y1="32.84" x2="45.92" y2="36.2"/><line class="cls-1" x1="46.09" y1="24.23" x2="50.98" y2="24.1"/><line class="cls-1" x1="42.51" y1="15.3" x2="45.87" y2="11.75"/><line class="cls-1" x1="33.76" y1="11.88" x2="33.62" y2="6.99"/><line class="cls-1" x1="33.7" y1="41.35" x2="33.57" y2="36.46"/></svg>