<svg id="Layer_2" data-name="Layer 2" xmlns="http://www.w3.org/2000/svg" viewBox="0 0 38.42 33"><title>analyzing</title><path d="M33.16,333H21.81V313.25H43.46a2.86,2.86,0,0,1,0,5.72H35.89v11.29A2.74,2.74,0,0,1,33.16,333Zm-10.35-1H33.16a1.74,1.74,0,0,0,1.73-1.73V318h8.57a1.86,1.86,0,0,0,0-3.72H22.81V332Z" transform="translate(-21.81 -300)" style="fill:#36a8ff"/><rect x="9.41" y="22.69" width="4.4" height="1" style="fill:#36a8ff"/><rect x="9.41" y="17.97" width="4.4" height="1" style="fill:#36a8ff"/><rect x="9.41" y="27.41" width="4.4" height="1" style="fill:#36a8ff"/><path d="M44.06,323a6.76,6.76,0,0,1-6.32-4.3l0.93-.37a5.79,5.79,0,1,0,0-4.34l-0.92-.38A6.79,6.79,0,1,1,44.06,323Z" transform="translate(-21.81 -300)" style="fill:#36a8ff"/><path d="M44.06,332.33a16.09,16.09,0,0,1-9-2.7l0.55-.83a15.17,15.17,0,1,0,8.4-27.8,15.26,15.26,0,0,0-15,12.83l-1-.15A16.17,16.17,0,1,1,44.06,332.33Z" transform="translate(-21.81 -300)" style="fill:#36a8ff"/><rect x="21.76" y="24.81" width="1" height="2.68" style="fill:#36a8ff"/><rect x="21.76" y="4.84" width="1" height="2.68" style="fill:#36a8ff"/><rect x="50.62" y="321.89" width="1" height="2.68" transform="translate(-235.34 -169.24) rotate(-44.99)" style="fill:#36a8ff"/><rect x="36.5" y="307.77" width="1" height="2.68" transform="translate(-229.54 -183.3) rotate(-45)" style="fill:#36a8ff"/><rect x="30.9" y="15.67" width="2.68" height="1" style="fill:#36a8ff"/><rect x="49.78" y="308.61" width="2.68" height="1" transform="translate(-225.42 -173.3) rotate(-45)" style="fill:#36a8ff"/></svg>