<?xml version="1.0" encoding="utf-8"?>
<!-- Generator: Adobe Illustrator 19.2.1, SVG Export Plug-In . SVG Version: 6.00 Build 0)  -->
<svg version="1.1" id="Layer_1" xmlns="http://www.w3.org/2000/svg" xmlns:xlink="http://www.w3.org/1999/xlink" x="0px" y="0px"
	 viewBox="0 0 512 512" style="enable-background:new 0 0 512 512;" xml:space="preserve">
<style type="text/css">
	.st0{fill:#36A8FF;}
</style>
<g>
	<g>
		<path class="st0" d="M256,44.4C139.3,44.4,44.4,139.3,44.4,256S139.3,467.6,256,467.6S467.6,372.7,467.6,256S372.7,44.4,256,44.4z
			 M256,449.1c-106.5,0-193.1-86.6-193.1-193.1S149.5,62.9,256,62.9S449.1,149.5,449.1,256S362.5,449.1,256,449.1z"/>
	</g>
</g>
<g>
	<g>
		<path class="st0" d="M256,0C114.8,0,0,114.8,0,256s114.8,256,256,256s256-114.8,256-256S397.2,0,256,0z M256,493.5
			C125.1,493.5,18.5,386.9,18.5,256S125.1,18.5,256,18.5S493.5,125,493.5,256S386.9,493.5,256,493.5z"/>
	</g>
</g>
<g>
	<g>
		<path class="st0" d="M350.5,174.1c4.2-6.5-6.5-15.8-14.5-9.1l-65.5,63.4c-0.9,0.9-2.4,1.2-3.6,0.7c-3.4-1.4-7.1-2.1-10.9-2.1
			c-3.9,0-7.5,0.8-10.9,2.1c-1.2,0.5-2.7,0.2-3.6-0.7L143,133.3c-9.3-8.7-19,4-13.9,9.5c0.6,0.7,55.3,54.6,55.9,55.3l43.4,43.4
			c0.9,0.9,1.2,2.4,0.7,3.6c-1.4,3.4-2.1,7.1-2.1,10.9c0,3.9,0.8,7.5,2.1,10.9c0.5,1.2,0.2,2.7-0.7,3.6l-2.2,2.2
			c-0.6,0.6-9.6,8.8-9.9,9.6c-2.8,9.7,8.2,16.4,12.7,12.6c0,0,10.7-9.5,12.5-11.3l0,0c0.9-0.9,2.4-1.2,3.6-0.7
			c3.4,1.4,7.1,2.1,10.9,2.1c3.9,0,7.5-0.8,10.9-2.1c1.2-0.5,2.7-0.2,3.6,0.7l0,0c1.8,1.8,9.2,8.4,15.3,12.9
			c6.6,4.9,16.2-5.2,11.6-12.3c-0.5-0.7-10.9-10.8-11.5-11.4l-2.2-2.2c-0.9-0.9-1.2-2.4-0.7-3.6c1.4-3.4,2.1-7.1,2.1-10.9
			c0-3.9-0.8-7.5-2.1-10.9c-0.5-1.2-0.2-2.7,0.7-3.6l63.6-63.6C352.7,172,344,181,350.5,174.1z M263.1,264.1
			c-10.8,7.6-22.8-4.4-15.2-15.2c0.3-0.4,0.6-0.8,1-1c10.8-7.6,22.8,4.4,15.2,15.2C263.8,263.5,263.5,263.8,263.1,264.1z"/>
	</g>
</g>
<g>
	<g>
		<path class="st0" d="M256,71c-5.1,0-9.3,4.4-9.3,9.9v20.2c0,5.5,4.1,9.9,9.3,9.9c5.1,0,9.3-4.4,9.3-9.9V80.9
			C265.3,75.4,261.1,71,256,71z"/>
	</g>
</g>
<g>
	<g>
		<path class="st0" d="M256,403c-5.1,0-9.3,4.2-9.3,9.4v19.2c0,5.2,4.1,9.4,9.3,9.4c5.1,0,9.3-4.2,9.3-9.4v-19.2
			C265.3,407.2,261.1,403,256,403z"/>
	</g>
</g>
<g>
	<g>
		<path class="st0" d="M431.1,246.7h-20.2c-5.5,0-9.8,4.1-9.8,9.3c0,5.1,4.5,9.3,9.8,9.3h20.2c5.5,0,9.8-4.1,9.8-9.3
			S436.5,246.7,431.1,246.7z"/>
	</g>
</g>
<g>
	<g>
		<path class="st0" d="M102.6,246.7H81.4c-5.7,0-10.4,4.1-10.4,9.3c0,5.1,4.6,9.3,10.4,9.3h21.3c5.7,0,10.4-4.1,10.4-9.3
			S108.4,246.7,102.6,246.7z"/>
	</g>
</g>
</svg>
