<svg id="Layer_2" data-name="Layer 2" xmlns="http://www.w3.org/2000/svg" viewBox="0 0 33 33"><title>clock-services</title><path d="M58.48,410.19A16.5,16.5,0,1,1,75,393.69,16.52,16.52,0,0,1,58.48,410.19Zm0-32A15.5,15.5,0,1,0,74,393.69,15.52,15.52,0,0,0,58.48,378.19Z" transform="translate(-41.98 -377.19)" style="fill:#ffaf36"/><path d="M58.48,407.19A13.5,13.5,0,1,1,72,393.69,13.52,13.52,0,0,1,58.48,407.19Zm0-26A12.5,12.5,0,1,0,71,393.69,12.51,12.51,0,0,0,58.48,381.19Z" transform="translate(-41.98 -377.19)" style="fill:#ffaf36"/><path d="M58.48,396a2.29,2.29,0,0,1-1.67-.73,2.28,2.28,0,0,1,.13-3.22,2.35,2.35,0,0,1,3.22.13A2.28,2.28,0,0,1,58.48,396Zm0-3.56a1.28,1.28,0,1,0,.94.41A1.27,1.27,0,0,0,58.48,392.41Z" transform="translate(-41.98 -377.19)" style="fill:#ffaf36"/><rect x="59.79" y="394.26" width="1" height="2.78" transform="translate(-294.46 -231.24) rotate(-42.73)" style="fill:#ffaf36"/><rect x="55.13" y="395" width="2.78" height="1" transform="translate(-295.42 -233.77) rotate(-42.75)" style="fill:#ffaf36"/><rect x="53.82" y="384.08" width="1" height="9.93" transform="translate(-285.75 -243.97) rotate(-41.41)" style="fill:#ffaf36"/><rect x="58.46" y="389.87" width="7.22" height="1" transform="translate(-290.45 -231.38) rotate(-42.74)" style="fill:#ffaf36"/><rect x="16" y="26.67" width="1" height="1.89" style="fill:#ffaf36"/><rect x="16" y="4.44" width="1" height="1.89" style="fill:#ffaf36"/><rect x="4.44" y="16" width="1.89" height="1" style="fill:#ffaf36"/><rect x="26.67" y="16" width="1.89" height="1" style="fill:#ffaf36"/></svg>