<svg id="Capa_1" data-name="Capa 1" xmlns="http://www.w3.org/2000/svg" viewBox="0 0 522.02 522"><defs><style>.cls-1{fill:#ffaf36;stroke:#ffaf36;stroke-miterlimit:10;stroke-width:10px;}</style></defs><title>phone-call</title><path class="cls-1" d="M411.5,512c-21.3,0-47-5.34-75.32-16-62-23.39-129.52-69.61-190-130.12S39.4,237.83,16,175.8C-5.27,119.41-5.32,73.12,15.84,51.94c3-3.07,6.16-6.34,9.37-9.7C44.55,21.9,66.61-1.38,95.37.07c20,0.83,39.31,13.23,59.14,37.85,58.48,72.77,32.13,98.71,1.62,128.77L150.73,172c-5,5-14.47,28.14,73.36,115.91,28.67,28.65,53.11,49.63,72.62,62.32,12.28,8,34.27,20.06,43.28,11.06l5.44-5.48c30-30.46,56-56.76,128.71,1.7,24.64,19.8,37,39.12,37.85,59.12,1.19,28.95-21.87,50.85-42.22,70.17-3.36,3.2-6.63,6.3-9.68,9.33C449.51,506.73,432.7,512,411.5,512ZM93.32,17.25c-20.58,0-39.18,19.56-55.62,36.87-3.31,3.46-6.53,6.84-9.68,10-15.76,15.76-14.16,57.24,4.1,105.63,22.56,59.79,67.38,125.12,126.21,184S282.47,457.34,342.27,479.88c48.39,18.29,89.86,19.84,105.61,4.08,3.15-3.15,6.53-6.35,10-9.64,17.69-16.81,37.75-35.85,36.87-57-0.6-14.52-11.18-30.14-31.43-46.41-60.6-48.7-77.54-31.55-105.65-3l-5.53,5.56c-13.41,13.41-35.22,10.45-64.85-8.78-20.51-13.35-45.89-35.08-75.41-64.59C139,227.24,115.72,182.68,138.54,159.81l5.49-5.42c28.55-28.1,45.79-45.07-2.94-105.7C124.8,28.45,109.18,17.87,94.66,17.27,94.21,17.25,93.77,17.25,93.32,17.25Z" transform="translate(4.99 5)"/><path class="cls-1" d="M336.7,183.91a8.6,8.6,0,0,1-6.1-14.69L497.29,2.53a8.61,8.61,0,1,1,12.17,12.17L342.77,181.4A8.51,8.51,0,0,1,336.7,183.91Z" transform="translate(4.99 5)"/><path class="cls-1" d="M503.39,144.7a8.61,8.61,0,0,1-8.61-8.61V17.24H375.92a8.61,8.61,0,1,1,0-17.22H503.37A8.61,8.61,0,0,1,512,8.63V136.09A8.58,8.58,0,0,1,503.39,144.7Z" transform="translate(4.99 5)"/></svg>