<?xml version="1.0" encoding="utf-8"?>
<!-- Generator: Adobe Illustrator 19.2.1, SVG Export Plug-In . SVG Version: 6.00 Build 0)  -->
<svg version="1.1" id="Capa_1" xmlns="http://www.w3.org/2000/svg" xmlns:xlink="http://www.w3.org/1999/xlink" x="0px" y="0px"
	 viewBox="0 0 57 57" style="enable-background:new 0 0 57 57;" xml:space="preserve">
<style type="text/css">
	.st0{fill:#BDC3C7;}
</style>
<g>
	<circle class="st0" cx="18.5" cy="31.5" r="5.5"/>
	<path class="st0" d="M18.5,38c-3.6,0-6.5-2.9-6.5-6.5s2.9-6.5,6.5-6.5s6.5,2.9,6.5,6.5S22.1,38,18.5,38z M18.5,27
		C16,27,14,29,14,31.5s2,4.5,4.5,4.5s4.5-2,4.5-4.5S21,27,18.5,27z"/>
</g>
<g>
	<circle class="st0" cx="35.5" cy="31.5" r="5.5"/>
	<path class="st0" d="M35.5,38c-3.6,0-6.5-2.9-6.5-6.5s2.9-6.5,6.5-6.5s6.5,2.9,6.5,6.5S39.1,38,35.5,38z M35.5,27
		C33,27,31,29,31,31.5s2,4.5,4.5,4.5s4.5-2,4.5-4.5S38,27,35.5,27z"/>
</g>
<path class="st0" d="M13,32c-0.6,0-1-0.4-1-1c0-7.7,6.3-14,14-14c0.6,0,1,0.4,1,1s-0.4,1-1,1c-6.6,0-12,5.4-12,12
	C14,31.6,13.6,32,13,32z"/>
<path class="st0" d="M30,32c-0.6,0-1-0.4-1-1c0-7.7,6.3-14,14-14c0.6,0,1,0.4,1,1s-0.4,1-1,1c-6.6,0-12,5.4-12,12
	C31,31.6,30.6,32,30,32z"/>
</svg>
