<svg id="Layer_2" data-name="Layer 2" xmlns="http://www.w3.org/2000/svg" viewBox="0 0 33.32 33.31"><title>rocket</title><path d="M71.24,364l-14.7-14.7,9.68-9.69A15.93,15.93,0,0,1,78,334.65a27.15,27.15,0,0,1,6.59.91l0.29,0.07,0.07,0.29c1.33,5.34,2.08,12.25-4,18.36ZM58,349.27l13.29,13.29,9-9c5.64-5.64,5.05-12.08,3.83-17.12a25.74,25.74,0,0,0-6.06-.81,15,15,0,0,0-11.06,4.64Z" transform="translate(-52.55 -334.65)" style="fill:#36a8ff"/><polygon points="32.69 10.65 22.65 0.62 23.81 0.36 32.97 9.52 32.69 10.65" style="fill:#36a8ff"/><path d="M72.8,352.61a4.9,4.9,0,1,1,3.46-1.44A4.87,4.87,0,0,1,72.8,352.61Zm0-8.8A3.9,3.9,0,0,0,70,350.47a4,4,0,0,0,5.51,0A3.9,3.9,0,0,0,72.8,343.81Z" transform="translate(-52.55 -334.65)" style="fill:#36a8ff"/><path d="M74.35,346.86L74,346.51a1.7,1.7,0,0,0-2.4,0l-0.35.35-0.71-.71,0.35-.35a2.7,2.7,0,0,1,3.82,0l0.35,0.35Z" transform="translate(-52.55 -334.65)" style="fill:#36a8ff"/><path d="M65.8,364.75l-10-10,3.82-3.82,10,10Zm-8.62-10,8.62,8.62,2.4-2.4-8.62-8.62Z" transform="translate(-52.55 -334.65)" style="fill:#36a8ff"/><rect x="59.53" y="355.77" width="3.2" height="1" transform="translate(-286.56 -187.08) rotate(-45)" style="fill:#36a8ff"/><rect x="62.64" y="358.88" width="3.2" height="1" transform="translate(-287.84 -183.99) rotate(-45)" style="fill:#36a8ff"/><path d="M57.32,349.9L52.55,347l3.17-3.17A3.79,3.79,0,0,1,59,342.78l4.8,0.69Zm-3.16-3.06,3,1.8,4.46-4.46-2.82-.4a2.78,2.78,0,0,0-2.38.79Z" transform="translate(-52.55 -334.65)" style="fill:#36a8ff"/><path d="M73.48,368l-2.86-4.77L77,356.76l0.69,4.8a3.81,3.81,0,0,1-1.07,3.22Zm-1.6-4.62,1.8,3,2.27-2.27a2.81,2.81,0,0,0,.79-2.37l-0.4-2.82Z" transform="translate(-52.55 -334.65)" style="fill:#36a8ff"/><path d="M58.38,366.56a18.94,18.94,0,0,1-3.57-.47L54.49,366l-0.07-.33c-0.77-3.87-.84-5.7,1.69-8.23l0.35-.35,0.71,0.71-0.35.35c-2.06,2.06-2.2,3.32-1.48,7,3.68,0.72,4.94.58,7-1.48l0.35-.35L63.4,364,63,364.4A6.08,6.08,0,0,1,58.38,366.56Z" transform="translate(-52.55 -334.65)" style="fill:#36a8ff"/><rect x="56.26" y="361.6" width="4.3" height="1" transform="translate(-291.48 -187.29) rotate(-45)" style="fill:#36a8ff"/></svg>