<svg id="Слой_1" data-name="Слой 1" xmlns="http://www.w3.org/2000/svg" viewBox="0 0 206.26 201.21"><defs><style>.cls-1{fill:#ffaf36;}</style></defs><title>rocket-services</title><path class="cls-1" d="M204.7,64.6a5.73,5.73,0,0,0-.4,1.4c-2.4,14.9-8.6,28.1-17.6,40.1-8.6,11.5-19.7,20.7-29.9,30.7-3.5,3.4-4.2,6.7-3.4,11,0.5,2.9,1,5.9,1.6,8.8,2.6,11.6-.3,21.1-9.4,29a119.51,119.51,0,0,0-15.4,15.6h-1c-3.8-6.1-7.9-11.9-11.3-18.2-3.7-6.8-9.1-11.8-14.3-17.1-1.8-1.9-3-1.9-4.8,0-5.4,5.4-11,10.6-16.9,16.2L20,121.7c4.8-5.8,10.4-10.2,15.4-15.3,3.7-3.7,3.6-3.6.1-7.2C25.5,88.9,12.9,82.6.3,76.2L0,74.2C7.1,68.6,13.3,62,19.8,55.7a23.55,23.55,0,0,1,19.7-6.5c5.9,0.7,11.8,1.7,17.7,2.7a7.34,7.34,0,0,0,7.1-2.3C71.6,42.3,79,35.1,86.6,28,100.1,15.4,115.7,6.7,134,2.7c3.1-.7-1.7.4,6.6-1.7A24.57,24.57,0,0,0,146,.6a1.84,1.84,0,0,1,1.6.2,0.66,0.66,0,0,0,.6.1h0c1.1,0,.3-0.4,5-0.9,4,0,11.1,1,15.1,1,0.8,1.2-1.1,0,0,0,9.5,0.3,18.6,2.6,27.8,4.4,3,0.6,4.3,2.1,4.8,5.3,0.8,5.3,1.9,10.5,3.2,15.7,1.4,5.9.8,4.6,1.1,5.2a138.14,138.14,0,0,1,1,21.3,54.28,54.28,0,0,1-1.9,12.9M63.1,153.9a9.22,9.22,0,0,0,4.3,4.2c4.1,5.5,9.5,9.6,14.3,14.7l13.7-14.4L82.1,144.7c-2.2-1.1-3.4-3.2-5.1-4.7-4.7-4.6-9.6-8.9-13.9-13.9-0.7-2.6-4.9-1.2-5.1-4.4L43.6,107.5,30,121.8l13.3,13.6c2,1.1,2.6,3.8,4.9,4.6C53.4,144.4,57.5,149.9,63.1,153.9Zm52.5,14.3c20-20.6,41.4-39.3,60.8-59.9a84,84,0,0,0,21.2-41.7c0.7-3.6.2-5.8-2.4-8.3-16.4-15.8-32.8-31.8-49-47.9-2.3-2.3-4.6-2.7-7.6-2.1-19.6,3.7-36.1,13-50.2,27C78,45.6,67.4,55.7,57,66.1c-7.5,7.5-14.8,15.3-22.3,23.1Zm36.3-161L199,53c1-13.9-1.4-26.5-4.1-39.2a3.5,3.5,0,0,0-3-2.9c-12.9-2.5-25.7-4.7-40-3.7h0Zm-21,184.3c5-5.3,9.6-10.1,14.2-14.9a15.08,15.08,0,0,0,4.2-10.9c0-6.1-2.1-11.9-2.2-18.8-9,8.7-17.3,16.7-25.7,24.8-1.4,1.3-1.2,2.5-.2,3.9,3,4.9,6,9.9,9.7,15.9h0ZM11.2,74.2c5.2,3,10.4,5.9,15.4,9,2.1,1.3,3,0,4.2-1.1,4.7-4.5,9.4-8.9,14-13.5,3.4-3.3,6.7-6.8,10.4-10.4a132.75,132.75,0,0,0-16.6-2.4c-5-.4-9.7.3-13.4,3.9C20.5,64.3,16.1,69,11.2,74.2Z" transform="translate(0 0.01)"/><path class="cls-1" d="M140.5,1c-0.7,1.3,10.8,0,9.6-.1V0C151.2,0,139.5,1,140.5,1Z" transform="translate(0 0.01)"/><path class="cls-1" d="M155.3,0a82,82,0,0,0-23.6,3.2" transform="translate(0 0.01)"/><path class="cls-1" d="M148.2,0.9" transform="translate(0 0.01)"/><path class="cls-1" d="M149.2,0" transform="translate(0 0.01)"/><path class="cls-1" d="M151.4,2.8V1.9h1V2.8h-1Z" transform="translate(0 0.01)"/><path class="cls-1" d="M205.5,50.7" transform="translate(0 0.01)"/><path class="cls-1" d="M62.6,172.8l4.7,4.5c-10.5,11.5-22.5,17.7-38.2,15-4.7-.8-9.5-1.5-14.2-2.2-2-.3-3.2-1-3.5-2.9-1.3-8.8-3.6-17.5-2.4-26.6,1.4-9.9,7-17,13.7-23.6,2-2,2.9-.1,4,1s2.2,2.1.5,3.6a29.49,29.49,0,0,0-2.5,2.5c-8.3,8.3-11.3,18-9,29.6S18.1,185,30,186.2C43.3,187.4,53.9,183.2,62.6,172.8Z" transform="translate(0 0.01)"/><path class="cls-1" d="M43.1,153.3l4.6,5C42,164.2,36.4,170,30.9,175.8c-2.1,2.2-3,.1-4.3-0.9-1.7-1.4-1.5-2.5,0-4C32,165.2,37.2,159.5,43.1,153.3Z" transform="translate(0 0.01)"/><path class="cls-1" d="M63.2,126.1c-5.6,4-9.8,9.5-15,13.9-2.3-.8-2.8-3.5-4.9-4.6,5-4.5,9.4-9.5,14.7-13.6C58.3,124.9,62.5,123.5,63.2,126.1Z" transform="translate(0 0.01)"/><path class="cls-1" d="M63.1,153.9L77,140c1.7,1.5,2.9,3.6,5.1,4.7-5.2,4.1-9.3,9.5-14.7,13.4A10.24,10.24,0,0,1,63.1,153.9Z" transform="translate(0 0.01)"/><path class="cls-1" d="M155.3,79c0.7,15.6-12.6,29.8-30.2,29.9-16.6.2-30.8-13.6-30.5-29.9,0.4-17.5,13.6-29.7,30.6-29.6C145,49.7,155.8,65.3,155.3,79Zm-30.5,23c13.7,0,24.6-10.1,24.2-23.1a23.72,23.72,0,0,0-23.9-23c-13.1.2-23.8,10.4-23.9,23C101.1,91.9,111.5,102,124.8,102Z" transform="translate(0 0.01)"/><path class="cls-1" d="M138.9,69.6a13.38,13.38,0,0,1-4,4.2c-9.2-6.4-11.4-6.4-19.1,0a2.92,2.92,0,0,1-.9-0.2c-4.4-3.8-4.4-4.2.1-7.6C120.9,61.4,132.7,61.2,138.9,69.6Z" transform="translate(0 0.01)"/><path class="cls-1" d="M204,26s0.7,4,1.4,7.4" transform="translate(0 0.01)"/></svg>