<svg id="Слой_1" data-name="Слой 1" xmlns="http://www.w3.org/2000/svg" viewBox="0 0 206.2 201.06"><defs><style>.cls-1{fill:#1f1f1f;}</style></defs><title>rocket</title><path class="cls-1" d="M702.5,394.54a5.57,5.57,0,0,0-.38,1.4c-2.43,14.9-8.63,28.1-17.62,40.11-8.63,11.53-19.66,20.74-29.91,30.68-3.5,3.39-4.17,6.71-3.4,10.95,0.53,2.93,1,5.89,1.61,8.79,2.62,11.56-.25,21.09-9.43,29A118.19,118.19,0,0,0,628,531.05l-1-.05c-3.79-6.06-7.9-11.94-11.29-18.22-3.65-6.76-9.11-11.8-14.35-17.13-1.81-1.85-3-1.9-4.85,0-5.41,5.41-11,10.62-16.89,16.24l-61.93-60.42c4.76-5.76,10.38-10.2,15.38-15.25,3.68-3.72,3.62-3.58.11-7.21-10-10.32-22.58-16.65-35.18-23l-0.18-1.86c7.13-5.59,13.28-12.24,19.84-18.45a23.58,23.58,0,0,1,19.69-6.52c5.93,0.69,11.81,1.72,17.7,2.7a7.44,7.44,0,0,0,7.14-2.29q10.94-11,22.26-21.56c13.48-12.69,29.09-21.37,47.32-25.3,3.08-.66-1.7.38,6.56-1.73a24.32,24.32,0,0,0,5.42-.44,1.86,1.86,0,0,1,1.61.17,0.92,0.92,0,0,0,.61.15h1c0.33,0-1.33,0-1,0,1.11,0,.28-0.36,5-0.86,4,0,11.14,1,15.14,1,0.76,1.22-1.09,0,0,0,9.45,0.34,18.59,2.56,27.8,4.37,3,0.59,4.3,2.1,4.77,5.34,0.77,5.3,1.92,10.54,3.17,15.74,1.41,5.87.79,4.56,1.11,5.23A150.05,150.05,0,0,1,704,383c-0.31,8.63-1.92,12.11-1.88,12.94M560.95,483.87a9.58,9.58,0,0,0,4.3,4.24c4.12,5.46,9.51,9.65,14.26,14.72l13.69-14.4-13.28-13.67c-2.15-1.09-3.36-3.19-5.09-4.72-4.67-4.6-9.59-8.94-13.86-13.93-0.67-2.65-4.86-1.19-5.1-4.35L541.49,437.6l-13.71,14.2,13.35,13.6c2.05,1.08,2.59,3.76,4.87,4.6C551.23,474.35,555.34,479.92,560.95,483.87Zm52.43,14.29c20-20.58,41.38-39.28,60.77-59.93a83.68,83.68,0,0,0,21.15-41.69c0.72-3.6.17-5.76-2.41-8.25q-24.64-23.77-49-47.86c-2.32-2.3-4.58-2.67-7.61-2.1-19.57,3.72-36.08,13-50.15,27-10.41,10.32-21,20.42-31.4,30.78-7.51,7.51-14.75,15.29-22.26,23.11Zm36.33-161L696.81,383c1-13.88-1.42-26.55-4.1-39.18a3.45,3.45,0,0,0-3-2.88C676.85,338.4,664,336.15,649.71,337.19Zm-21,184.36c5-5.28,9.63-10.07,14.16-14.94a15.33,15.33,0,0,0,4.16-10.88c0-6.11-2.09-11.9-2.24-18.81-9,8.68-17.32,16.74-25.7,24.76-1.39,1.33-1.16,2.45-.23,3.92C622,510.51,625,515.48,628.73,521.55ZM509,404.2c5.17,3,10.37,5.9,15.4,9,2.09,1.31,3,0,4.17-1.15,4.68-4.48,9.39-8.93,14-13.45,3.42-3.34,6.74-6.77,10.37-10.43a128.73,128.73,0,0,0-16.61-2.38c-5-.4-9.73.26-13.43,3.88C518.28,394.24,513.91,399,509,404.2Z" transform="translate(-497.82 -329.99)"/><path class="cls-1" d="M638.33,331c-0.7,1.31,10.75,0,9.64-.06a7.69,7.69,0,0,0,0-.93C649,330,637.33,331,638.33,331Z" transform="translate(-497.82 -329.99)"/><path class="cls-1" d="M653.13,330a78.47,78.47,0,0,0-23.58,3.23" transform="translate(-497.82 -329.99)"/><path class="cls-1" d="M646,330.86" transform="translate(-497.82 -329.99)"/><path class="cls-1" d="M647,330" transform="translate(-497.82 -329.99)"/><path class="cls-1" d="M649.19,332.75q0-.44,0-0.87h1a7.69,7.69,0,0,1,0,.93Z" transform="translate(-497.82 -329.99)"/><path class="cls-1" d="M703.33,380.67" transform="translate(-497.82 -329.99)"/><path class="cls-1" d="M560.4,502.76l4.69,4.54c-10.46,11.48-22.47,17.67-38.19,15-4.73-.8-9.49-1.46-14.24-2.21-1.95-.31-3.18-1-3.45-2.87-1.25-8.82-3.65-17.47-2.37-26.62,1.38-9.9,7-17,13.72-23.64,2-1.95,2.87-.06,4,1s2.22,2.14.51,3.65c-0.87.77-1.65,1.65-2.47,2.47-8.28,8.27-11.25,18-9,29.61S516,515,527.91,516.14C541.15,517.42,551.75,513.16,560.4,502.76Z" transform="translate(-497.82 -329.99)"/><path class="cls-1" d="M540.89,483.24l4.6,5c-5.66,5.89-11.28,11.66-16.8,17.51-2.12,2.24-3,.13-4.35-0.93-1.72-1.39-1.45-2.5,0-4C529.77,495.19,535,489.48,540.89,483.24Z" transform="translate(-497.82 -329.99)"/><path class="cls-1" d="M561,456.1c-5.57,4-9.79,9.47-15,13.9-2.28-.84-2.81-3.52-4.87-4.6,5-4.48,9.44-9.51,14.74-13.65C556.12,454.91,560.3,453.45,561,456.1Z" transform="translate(-497.82 -329.99)"/><path class="cls-1" d="M560.95,483.87L574.84,470c1.73,1.54,2.94,3.64,5.09,4.72-5.17,4.14-9.25,9.49-14.68,13.35A9.58,9.58,0,0,1,560.95,483.87Z" transform="translate(-497.82 -329.99)"/><path class="cls-1" d="M653.11,409c0.7,15.56-12.59,29.76-30.18,29.92-16.6.16-30.83-13.61-30.47-29.85,0.38-17.52,13.61-29.74,30.64-29.59C642.77,379.65,653.64,395.27,653.11,409ZM622.65,432c13.7,0,24.58-10.11,24.15-23.07a23.66,23.66,0,0,0-23.92-23c-13.09.19-23.81,10.36-23.88,23C598.93,421.84,609.35,432,622.65,432Z" transform="translate(-497.82 -329.99)"/><path class="cls-1" d="M636.7,399.59a12.41,12.41,0,0,1-4.05,4.18c-9.23-6.37-11.44-6.36-19.14,0a2.23,2.23,0,0,1-.92-0.23c-4.41-3.77-4.39-4.18.1-7.57C618.75,391.42,630.52,391.15,636.7,399.59Z" transform="translate(-497.82 -329.99)"/><path class="cls-1" d="M701.81,356s0.69,4,1.37,7.35" transform="translate(-497.82 -329.99)"/></svg>