<svg id="Layer_2" data-name="Layer 2" xmlns="http://www.w3.org/2000/svg" viewBox="0 0 37 37.13"><defs><style>.cls-1{fill:#ffaf36;}</style></defs><title>support-sevices</title><path class="cls-1" d="M14.54,373.14l-2.12-2.65a10.54,10.54,0,0,1-2.3-6.56v-7h1v7a9.53,9.53,0,0,0,2.08,5.93l2.12,2.65Z" transform="translate(-3.12 -350.94)"/><path class="cls-1" d="M18.7,373.14l-0.78-.62L20,369.86a9.53,9.53,0,0,0,2.08-5.93v-6a25.27,25.27,0,0,1-9.72-2l-0.45-.22,0.45-.89L12.84,355a24.41,24.41,0,0,0,9.78,1.95h0.5v7a10.54,10.54,0,0,1-2.3,6.56Z" transform="translate(-3.12 -350.94)"/><path class="cls-1" d="M4.12,383.94h-1v-1.5a10.52,10.52,0,0,1,10.46-10.5h1.54v1H13.58a9.52,9.52,0,0,0-9.46,9.5v1.5Z" transform="translate(-3.12 -350.94)"/><path class="cls-1" d="M30.12,383.94h-1v-1.5a9.52,9.52,0,0,0-9.46-9.5H18.12v-1h1.54a10.52,10.52,0,0,1,10.46,10.5v1.5Z" transform="translate(-3.12 -350.94)"/><path class="cls-1" d="M24.62,364.94h-0.5v-1h0.5a1.5,1.5,0,0,0,0-3h-0.5v-4a4.48,4.48,0,0,0-3.25-4.32,16.29,16.29,0,0,0-4.25-.64,16.28,16.28,0,0,0-4.25.64,4.48,4.48,0,0,0-3.25,4.32v4H8.62a1.5,1.5,0,0,0,0,3h0.5v1H8.62a2.5,2.5,0,0,1-.5-4.95V356.9a5.48,5.48,0,0,1,4-5.29,17.24,17.24,0,0,1,4.52-.68,17.25,17.25,0,0,1,4.52.68,5.48,5.48,0,0,1,4,5.29V360A2.5,2.5,0,0,1,24.62,364.94Z" transform="translate(-3.12 -350.94)"/><rect class="cls-1" x="9.5" y="11" width="3" height="1"/><rect class="cls-1" x="14.5" y="11" width="3" height="1"/><path class="cls-1" d="M19.12,375.94h-5v-4h5v4Zm-4-1h3v-2h-3v2Z" transform="translate(-3.12 -350.94)"/><polygon class="cls-1" points="13.5 37.13 8.94 33.71 11.12 23.9 12.1 24.12 10.06 33.29 13.5 35.88 16.94 33.29 14.9 24.12 15.88 23.9 18.06 33.71 13.5 37.13"/><path class="cls-1" d="M25.76,369.13l-0.83-.55,2.43-3.64h5.34a6.44,6.44,0,0,0,6.43-6.43v-0.14a6.44,6.44,0,0,0-6.43-6.43H24.12v-1h8.57a7.44,7.44,0,0,1,7.43,7.43v0.14a7.44,7.44,0,0,1-7.43,7.43h-4.8Z" transform="translate(-3.12 -350.94)"/><rect class="cls-1" x="24" y="5" width="8" height="1"/><rect class="cls-1" x="24" y="7" width="8" height="1"/><rect class="cls-1" x="25" y="9" width="7" height="1"/></svg>