<?xml version="1.0" encoding="utf-8"?>
<!-- Generator: Adobe Illustrator 19.2.1, SVG Export Plug-In . SVG Version: 6.00 Build 0)  -->
<svg version="1.1" id="Слой_1" xmlns="http://www.w3.org/2000/svg" xmlns:xlink="http://www.w3.org/1999/xlink" x="0px" y="0px"
	 viewBox="0 0 63.3 63.6" style="enable-background:new 0 0 63.3 63.6;" xml:space="preserve">
<style type="text/css">
	.st0{fill:none;stroke:#36A7FE;stroke-width:2;stroke-miterlimit:10;}
	.st1{fill:#F4A7FE;stroke:#36A7FE;stroke-width:2;stroke-miterlimit:10;}
	.st2{fill:#36A7FE;}
</style>
<title>support</title>
<line class="st0" x1="22.3" y1="1.4" x2="23" y2="0.7"/>
<line class="st0" x1="8.9" y1="14.7" x2="8.1" y2="15.2"/>
<path class="st0" d="M8.5,15.9c-0.2-0.9,0,0,0-0.9C8.5,7.4,8.3,1.2,23,1.4C39.2,1.5,37.5,7.4,37.5,15c0.1,0.6,0.1,1.1,0,1.7"/>
<path class="st0" d="M37.4,16.4c5.2,0.9,4.4,8.6-0.8,8.5"/>
<line class="st0" x1="24.1" y1="19.6" x2="29.9" y2="19.6"/>
<line class="st0" x1="16.1" y1="19.6" x2="21.9" y2="19.6"/>
<path class="st0" d="M44.7,52.9c0-8.9-4.9-16.1-21.7-16.1c-16.9,0-22,7.5-22,16.4"/>
<path class="st0" d="M44.7,52.6"/>
<line class="st0" x1="1" y1="52.6" x2="1" y2="52.6"/>
<line class="st0" x1="1" y1="52.6" x2="1" y2="57.8"/>
<line class="st0" x1="44.7" y1="52.9" x2="44.7" y2="57.8"/>
<line class="st0" x1="19" y1="36.9" x2="19.8" y2="42.3"/>
<line class="st0" x1="27" y1="36.9" x2="25.9" y2="42.2"/>
<line class="st0" x1="19.8" y1="42.3" x2="25.9" y2="42.2"/>
<line class="st0" x1="25.9" y1="42.2" x2="29.4" y2="57.1"/>
<line class="st0" x1="19.8" y1="42.3" x2="16.6" y2="57"/>
<line class="st0" x1="29.4" y1="57.1" x2="23.4" y2="62.6"/>
<line class="st0" x1="16.6" y1="57" x2="23.4" y2="62.6"/>
<line class="st0" x1="34" y1="11.8" x2="34" y2="25.7"/>
<line class="st0" x1="12.5" y1="11.8" x2="12.4" y2="25.7"/>
<path class="st0" d="M12.4,25.7c2.2,5.9,2.6,6.9,6.6,11"/>
<path class="st0" d="M34,25.7c-2.4,5.9-2.8,6.9-7,11"/>
<path class="st0" d="M15.6,7.7c4.2,3,13,4,18.4,4.1"/>
<path class="st0" d="M50.7,2.1C57,2,62.2,7,62.3,13.3c-0.1,6.3-5.3,11.3-11.6,11.2"/>
<line class="st0" x1="50.7" y1="2.1" x2="35.7" y2="2.1"/>
<line class="st0" x1="50.7" y1="24.5" x2="41.9" y2="24.5"/>
<line class="st0" x1="38.1" y1="30.9" x2="42.1" y2="24.5"/>
<line class="st0" x1="41" y1="9.7" x2="54.9" y2="9.7"/>
<line class="st0" x1="41" y1="13.3" x2="54.9" y2="13.3"/>
<line class="st0" x1="54.9" y1="16.7" x2="42.1" y2="16.7"/>
<path class="st0" d="M8.7,15.4c-5.2,0.9-4.4,8.6,0.8,8.5"/>
<path class="st1" d="M12.4,25.3L12.4,25.3L12.4,25.3z"/>
<circle class="st2" cx="12.4" cy="25.7" r="1"/>
<circle class="st2" cx="8.4" cy="15.4" r="0.7"/>
<circle class="st2" cx="34" cy="11.8" r="0.7"/>
<circle class="st2" cx="34" cy="25.7" r="0.7"/>
<circle class="st2" cx="37.4" cy="16.4" r="0.7"/>
<ellipse transform="matrix(8.472133e-002 -0.9964 0.9964 8.472133e-002 18.3382 52.0106)" class="st2" cx="37.5" cy="16" rx="0.7" ry="0.7"/>
<circle class="st2" cx="42.1" cy="24.5" r="0.7"/>
<circle class="st2" cx="16.6" cy="57" r="0.7"/>
<circle class="st2" cx="23.4" cy="62.6" r="0.7"/>
<circle class="st2" cx="29.4" cy="57.1" r="0.7"/>
<circle class="st2" cx="34" cy="11.8" r="1"/>
<circle class="st2" cx="34" cy="25.7" r="1"/>
<circle class="st2" cx="37.5" cy="16.4" r="1"/>
<circle class="st2" cx="37.5" cy="16" r="1"/>
<ellipse transform="matrix(0.1607 -0.987 0.987 0.1607 11.2025 62.0679)" class="st2" cx="42.1" cy="24.4" rx="1" ry="1"/>
<ellipse transform="matrix(0.8267 -0.5627 0.5627 0.8267 -26.9793 26.4215)" class="st2" cx="29.4" cy="57" rx="1" ry="1"/>
<ellipse transform="matrix(9.931970e-002 -0.9951 0.9951 9.931970e-002 -41.1923 79.6828)" class="st2" cx="23.4" cy="62.6" rx="1" ry="1"/>
<circle class="st2" cx="16.6" cy="57" r="1"/>
</svg>
