<?xml version="1.0" encoding="iso-8859-1"?>
<!-- Generator: Adobe Illustrator 17.1.0, SVG Export Plug-In . SVG Version: 6.00 Build 0)  -->
<!DOCTYPE svg PUBLIC "-//W3C//DTD SVG 1.1//EN" "http://www.w3.org/Graphics/SVG/1.1/DTD/svg11.dtd">
<svg xmlns="http://www.w3.org/2000/svg" xmlns:xlink="http://www.w3.org/1999/xlink" version="1.1" id="Capa_1" x="0px" y="0px" viewBox="0 0 459.994 459.994" style="enable-background:new 0 0 459.994 459.994;" xml:space="preserve" width="512px" height="512px">
<g>
	<path d="M440.745,444.994h-50.975v-15.368c0-35.193-9.385-62.355-27.893-80.733c-23.599-23.43-53.265-23.467-54.407-23.474h-37.572   v-22.734c0-0.396-0.04-0.783-0.1-1.163c24.058-9.94,39.262-26.521,48.52-40.896c1.588-2.466,3.033-4.919,4.361-7.337   c24.104-1.264,43.328-21.271,43.328-45.685c0-8.768-2.489-17.286-7.198-24.641c0.81-6.426,0.491-12.246,0.14-15.684   c-0.576-5.655-3.135-10.4-7.397-13.723c-3.045-2.373-6.612-3.737-10.054-4.497V74.918c0-24.675-10.2-41.168-31.185-50.424   c-8.51-3.752-6.269-11.918-5.402-14.27c1.292-3.315,0.076-7.082-2.909-9.018c-2.987-1.935-6.921-1.506-9.42,1.028   c-11.882,12.053-24.46,11.732-47.278,11.157c-15.901-0.402-35.695-0.903-61.753,2.825c-35.786,5.119-51.659,27.232-58.673,44.881   c-7.027,17.684-6.599,34.197-6.501,36.481v49.109c0,0.797,0.127,1.564,0.357,2.285c-3.568,0.741-7.3,2.116-10.468,4.584   c-4.263,3.322-6.822,8.067-7.399,13.723c-0.757,7.429-1.374,25.978,9.245,37.734c3.679,4.074,8.326,6.804,13.668,8.085v1.567   c0,0.36,0.026,0.72,0.078,1.076c0.131,0.907,3.387,22.474,17.82,44.884c9.258,14.375,24.462,30.955,48.519,40.896   c-0.059,0.38-0.099,0.767-0.099,1.163v22.734h-37.517c-1.244,0.024-30.87,0.051-54.46,23.474   c-18.509,18.377-27.894,45.54-27.894,80.733v15.368H19.249c-4.142,0-7.5,3.358-7.5,7.5c0,4.142,3.358,7.5,7.5,7.5h421.497   c4.143,0,7.5-3.358,7.5-7.5C448.245,448.352,444.888,444.994,440.745,444.994z M307.524,340.42c0.002,0,0.005,0,0.01,0   c0.593,0,24.707,0.187,43.774,19.118c15.569,15.458,23.463,39.039,23.463,70.088v15.368H255.878   c-0.021-0.536-0.097-1.077-0.239-1.617l-14.398-54.612l10.318,3.365c0.764,0.249,1.548,0.37,2.324,0.37   c2.139,0,4.221-0.917,5.67-2.59l7.82-9.03l13.591-8.307c2.628-1.607,4.007-4.655,3.477-7.689l-4.27-24.463H307.524z    M194.011,351.45c4.929,10.478,14.299,18.464,25.671,21.523l-10.277,3.351l-5.323-6.147c-0.506-0.584-1.099-1.086-1.758-1.489   l-10.231-6.254L194.011,351.45z M266.622,350.036l2.165,12.399l-10.231,6.254c-0.659,0.403-1.253,0.905-1.758,1.489l-5.323,6.147   l-10.69-3.486C252.448,369.545,261.956,361.059,266.622,350.036z M240.553,444.994h-20.16l10.08-38.231L240.553,444.994z    M250.501,125.847c-2.374,0.695-4.253,2.516-5.021,4.868c-0.157,0.48-2.016,6.317-2.579,14.007   c-10.503-2.356-19.641-1.546-26.205-0.112c-0.573-7.633-2.414-13.417-2.57-13.895c-0.768-2.352-2.647-4.173-5.022-4.868   c-12.567-3.679-25.496-5.544-38.427-5.544c-5.576,0-10.707,0.35-15.317,0.886c1.112-1.339,1.735-3.029,1.735-4.789v-16.378   c6.93-3.35,27.424-10.765,73.021-10.765c45.597,0,66.092,7.415,73.022,10.765v16.378c0,1.794,0.645,3.518,1.799,4.869   c-4.785-0.582-10.152-0.966-16.008-0.966C275.997,120.303,263.068,122.169,250.501,125.847z M170.676,135.303   c10.119,0,20.243,1.286,30.154,3.826c1.31,6.281,2.195,16.628-2.266,23.098c-3.019,4.378-8.296,6.708-16.134,7.122   c-5.92,0.313-10.188,0.453-13.837,0.453c-19.207,0-26.085-1.461-27.837-30.54C146.513,137.616,157.035,135.303,170.676,135.303z    M258.774,139.13c9.912-2.54,20.036-3.826,30.155-3.826c13.531,0,24.123,2.329,29.92,3.974   c-1.754,29.063-8.633,30.524-27.836,30.524c-3.65,0-7.918-0.14-13.838-0.453c-7.837-0.414-13.114-2.744-16.134-7.122   C256.578,155.755,257.466,145.401,258.774,139.13z M351.007,207.604c0,13.43-8.658,24.869-20.683,29.049   c4.439-11.784,5.733-20.346,5.815-20.91c0.051-0.357,0.077-0.716,0.077-1.077v-1.606c5.268-1.299,9.85-4.017,13.489-8.046   c0.364-0.403,0.712-0.816,1.051-1.234C350.913,205.042,351.007,206.318,351.007,207.604z M344.026,168.801   c0.892,8.739-0.072,20.201-5.453,26.158c-0.721,0.798-1.508,1.456-2.357,2.008v-33.595c2.324,0.268,4.651,0.866,6.131,2.029   C343.063,165.964,343.823,166.808,344.026,168.801z M185.674,31.065c24.813-3.55,43.91-3.065,59.249-2.678   c17.997,0.457,32.299,0.818,45.185-5.784c1.779,6.164,6.027,12.033,14.152,15.616c15.587,6.875,22.237,17.85,22.237,36.699v46.109   l-8.359-7.867V95.718c0-2.25-1.01-4.38-2.751-5.805c-1.959-1.602-20.992-15.655-85.271-15.655   c-64.278,0-83.311,14.053-85.27,15.655c-1.741,1.425-2.751,3.556-2.751,5.805v17.441l-8.719,8.204V97.401   c0-0.129-0.004-0.276-0.011-0.405C133.243,94.627,130.994,38.886,185.674,31.065z M121.243,194.96   c-5.38-5.957-6.345-17.418-5.454-26.158c0.203-1.993,0.963-2.837,1.68-3.401c1.518-1.193,3.926-1.794,6.31-2.051v33.73   C122.861,196.506,122.014,195.813,121.243,194.96z M154.587,252.966c-11.735-18.011-15.267-35.842-15.808-38.914v-36.978   c6.651,5.543,16.243,7.728,29.813,7.728c3.924,0,8.436-0.146,14.629-0.473c12.651-0.669,21.983-5.262,27.735-13.65   c2.19-3.194,3.629-6.686,4.544-10.23c3.624-1.249,10.604-2.975,19.43-1.907v28.504c0,1.654-1.346,3-3,3h-3.868   c-1.654,0-3-1.346-3-3c0-4.142-3.358-7.5-7.5-7.5s-7.5,3.358-7.5,7.5c0,9.925,8.075,18,18,18h3.868   c9.665,0,17.554-7.664,17.961-17.231c0.025-0.253,0.039-0.509,0.039-0.769v-14.643c5.814,7.292,14.698,11.306,26.452,11.927   c6.195,0.327,10.681,0.439,14.63,0.473c13.83,0,23.539-2.26,30.202-8.043v37.292c-0.396,2.247-2.355,12.177-7.837,24.303h-50.981   c-0.947,0-1.85,0.183-2.685,0.503c-2.015-2.184-4.893-3.559-8.099-3.559h-8.279c-6.093,0-11.031,4.939-11.031,11.031   s4.938,11.031,11.031,11.031h8.279c3.555,0,6.708-1.688,8.726-4.299c0.654,0.187,1.343,0.293,2.058,0.293h42.75   c-16.808,25.549-41.854,39.608-74.454,41.781H229.3C196.533,292.951,171.395,278.764,154.587,252.966z M228.569,310.119   c0.162,0.01,0.323,0.016,0.485,0.016h1.886c0.162,0,0.324-0.005,0.485-0.016c8.5-0.551,16.299-1.832,23.473-3.668v26.469   c0,0.046,0.006,0.091,0.007,0.138c-0.103,0.494-0.157,1.006-0.157,1.531c0,13.647-11.103,24.75-24.751,24.75   c-13.647,0-24.75-11.103-24.75-24.75c0-0.525-0.055-1.037-0.157-1.531c0-0.046,0.007-0.091,0.007-0.138v-26.469   C212.27,308.287,220.07,309.569,228.569,310.119z M85.225,429.626c0-88.177,64.527-89.206,67.301-89.206h28.184l-4.27,24.463   c-0.53,3.034,0.849,6.082,3.477,7.689l13.591,8.307l7.82,9.03c1.45,1.673,3.531,2.59,5.67,2.59c0.776,0,1.56-0.121,2.324-0.37   l10.39-3.388l-14.405,54.636c-0.143,0.54-0.217,1.081-0.239,1.616H85.225V429.626z" fill="#36a8ff"/>
	<circle cx="176.76" cy="152.317" r="8.951" fill="#36a8ff"/>
	<circle cx="283.235" cy="152.317" r="8.951" fill="#36a8ff"/>
	<path d="M207.92,241.833c-8.847-3.04-13.396-6.915-13.57-7.066c-3.062-2.747-7.773-2.518-10.551,0.529   c-2.791,3.061-2.572,7.805,0.488,10.596c0.663,0.605,6.824,6.027,18.758,10.128c0.808,0.278,1.629,0.409,2.438,0.409   c3.114,0,6.024-1.955,7.092-5.064C213.921,247.445,211.837,243.178,207.92,241.833z" fill="#36a8ff"/>
</g>
<g>
</g>
<g>
</g>
<g>
</g>
<g>
</g>
<g>
</g>
<g>
</g>
<g>
</g>
<g>
</g>
<g>
</g>
<g>
</g>
<g>
</g>
<g>
</g>
<g>
</g>
<g>
</g>
<g>
</g>
</svg>
